<svg xmlns="http://www.w3.org/2000/svg" width="1159" height="944" viewBox="0 0 1159 944" version="1.1"><path d="M 581.426 5.369 L 576.500 9.638 541 39.526 L 505.500 69.414 463 105.384 L 420.500 141.354 416 145.121 L 411.500 148.888 391 166.202 L 370.500 183.515 355 196.506 L 339.500 209.497 328.387 218.999 L 317.275 228.500 299.974 243 L 282.672 257.500 268.478 269.500 L 254.285 281.500 239.458 294 L 224.631 306.500 213.401 316 L 202.171 325.500 191.409 334.500 L 180.648 343.500 169.490 353 L 158.333 362.500 147.543 371.500 L 136.752 380.500 128.541 387.500 L 120.329 394.500 109.027 404 L 97.725 413.500 93.026 417.500 L 88.327 421.500 77.024 431 L 65.721 440.500 58.610 446.556 L 51.500 452.612 41 461.433 L 30.500 470.254 19.500 479.556 L 8.500 488.858 4.577 492.262 L 0.654 495.667 163.577 496.333 L 326.500 496.999 424.250 497 L 522 497 522 709 L 522 921 523.111 921 L 524.222 921 533.361 913.797 L 542.500 906.594 551.500 899.477 L 560.500 892.359 570.771 884.430 L 581.041 876.500 589.371 870 L 597.702 863.500 607.601 855.791 L 617.500 848.082 625.554 841.791 L 633.609 835.500 651.554 821.569 L 669.500 807.638 677.160 801.569 L 684.821 795.500 697.029 786 L 709.238 776.500 719.657 768.266 L 730.076 760.032 738.288 753.787 L 746.500 747.542 754.094 741.521 L 761.688 735.500 766.936 731.500 L 772.183 727.500 780.973 720.500 L 789.762 713.500 802.580 703.500 L 815.399 693.500 826.449 685.072 L 837.500 676.643 847.611 668.572 L 857.722 660.500 867.457 653 L 877.192 645.500 890.498 635 L 903.803 624.500 915.497 615.500 L 927.190 606.500 947.506 590.500 L 967.822 574.500 979.522 565.500 L 991.222 556.500 1000.361 549.422 L 1009.500 542.345 1049.566 510.922 L 1089.632 479.500 1123.203 453.500 L 1156.774 427.500 1156.352 426.790 L 1155.931 426.079 904.215 426.544 L 652.500 427.010 620.250 427.459 L 588 427.909 588 215.013 L 588 2.118 587.176 1.609 L 586.352 1.099 581.426 5.369 M 505.388 157.754 L 490.276 170.500 482.388 177.039 L 474.500 183.577 455.500 199.509 L 436.500 215.441 414.500 233.854 L 392.500 252.266 372.500 268.974 L 352.500 285.682 323.500 309.979 L 294.500 334.275 280.072 346.388 L 265.645 358.500 260.572 362.643 L 255.500 366.786 234.500 384.467 L 213.500 402.149 198.212 414.825 L 182.924 427.500 274.212 427.814 L 365.500 428.127 443.750 427.443 L 522 426.758 522 285.879 L 522 145 521.250 145.004 L 520.500 145.009 505.388 157.754 M 588 640.122 L 588 782.245 589.250 781.263 L 590.500 780.280 601.840 771.390 L 613.181 762.500 618.840 758.133 L 624.500 753.766 633.500 746.667 L 642.500 739.568 654 730.490 L 665.500 721.412 679 710.778 L 692.500 700.144 706.225 689.322 L 719.950 678.500 734.640 667 L 749.330 655.500 768.977 640 L 788.624 624.500 802.522 613.500 L 816.419 602.500 825.534 595.500 L 834.650 588.500 854.575 572.730 L 874.500 556.959 910.958 528.230 L 947.415 499.500 917.958 498.891 L 888.500 498.281 738.250 498.141 L 588 498 588 640.122" stroke="none" fill="#141414" fill-rule="evenodd"/></svg>